<svg xmlns="http://www.w3.org/2000/svg" height="512pt" version="1.1" viewBox="0 0 512 512.00103" width="512pt">
  <g id="surface1">
    <path
      d="M 419.78125 256 C 419.78125 319.0625 384.144531 373.789062 331.910156 401.164062 L 180.085938 401.164062 C 127.863281 373.789062 92.222656 319.0625 92.222656 256 C 92.222656 165.550781 165.546875 92.21875 256.003906 92.21875 C 268.597656 92.21875 280.851562 93.640625 292.632812 96.335938 C 365.449219 112.972656 419.78125 178.144531 419.78125 256 Z M 419.78125 256 "
      style=" stroke:none;fill-rule:nonzero;fill:rgb(93.72549%,53.72549%,18.823529%);fill-opacity:1;" />
    <path
      d="M 419.78125 256 C 419.78125 319.0625 384.144531 373.789062 331.910156 401.164062 L 253.335938 401.164062 C 201.113281 373.789062 165.476562 319.0625 165.476562 256 C 165.476562 178.144531 219.808594 112.964844 292.632812 96.335938 C 365.449219 112.972656 419.78125 178.144531 419.78125 256 Z M 419.78125 256 "
      style=" stroke:none;fill-rule:nonzero;fill:rgb(100%,81.568627%,38.039216%);fill-opacity:1;" />
    <path
      d="M 338.886719 401.164062 L 338.886719 445.136719 C 338.886719 476.261719 314.886719 501.789062 284.371094 504.203125 C 282.800781 504.335938 281.21875 504.394531 279.617188 504.394531 L 234.378906 504.394531 C 201.640625 504.394531 175.109375 477.863281 175.109375 445.136719 L 175.109375 401.164062 Z M 338.886719 401.164062 "
      style=" stroke:none;fill-rule:nonzero;fill:rgb(80%,80%,80%);fill-opacity:1;" />
    <path
      d="M 338.886719 401.164062 L 338.886719 445.136719 C 338.886719 476.261719 314.886719 501.789062 284.371094 504.203125 C 253.855469 501.789062 229.855469 476.261719 229.855469 445.136719 L 229.855469 401.164062 Z M 338.886719 401.164062 "
      style=" stroke:none;fill-rule:nonzero;fill:rgb(90.196078%,90.196078%,90.196078%);fill-opacity:1;" />
    <path
      d="M 267.109375 335.355469 L 244.898438 335.355469 C 232.859375 335.355469 223.101562 345.113281 223.101562 357.152344 L 223.101562 401.160156 L 288.90625 401.160156 L 288.90625 357.152344 C 288.90625 345.113281 279.148438 335.355469 267.109375 335.355469 Z M 267.109375 335.355469 "
      style=" stroke:none;fill-rule:nonzero;fill:rgb(24.313725%,29.411765%,36.078431%);fill-opacity:1;" />
    <path
      d="M 286.0625 256.632812 C 286.0625 273.234375 272.605469 286.691406 256.003906 286.691406 C 239.402344 286.691406 225.945312 273.234375 225.945312 256.632812 C 225.945312 240.03125 239.402344 226.574219 256.003906 226.574219 C 272.605469 226.574219 286.0625 240.03125 286.0625 256.632812 Z M 286.0625 256.632812 "
      style=" stroke:none;fill-rule:nonzero;fill:rgb(98.823529%,90.588235%,61.176471%);fill-opacity:1;" />
    <path
      d="M 376.652344 211.664062 C 376.652344 229.019531 362.582031 243.09375 345.222656 243.09375 C 327.863281 243.09375 313.792969 229.019531 313.792969 211.664062 C 313.792969 194.304688 327.863281 180.234375 345.222656 180.234375 C 362.582031 180.234375 376.652344 194.304688 376.652344 211.664062 Z M 376.652344 211.664062 "
      style=" stroke:none;fill-rule:nonzero;fill:rgb(98.823529%,90.588235%,61.176471%);fill-opacity:1;" />
    <path
      d="M 427.386719 256 C 427.386719 221.660156 417.265625 188.523438 398.113281 160.175781 C 395.761719 156.695312 391.03125 155.78125 387.554688 158.132812 C 384.074219 160.480469 383.160156 165.207031 385.507812 168.6875 C 402.957031 194.511719 412.179688 224.707031 412.179688 256 C 412.179688 313.691406 380.722656 366.21875 329.980469 393.554688 L 296.511719 393.554688 L 296.511719 357.152344 C 296.511719 340.9375 283.320312 327.75 267.109375 327.75 L 263.609375 327.75 L 263.609375 293.523438 C 280.742188 289.996094 293.664062 274.796875 293.664062 256.632812 C 293.664062 235.867188 276.769531 218.972656 256.003906 218.972656 C 235.238281 218.972656 218.339844 235.867188 218.339844 256.632812 C 218.339844 274.796875 231.265625 289.996094 248.398438 293.523438 L 248.398438 327.75 L 244.898438 327.75 C 228.6875 327.75 215.496094 340.9375 215.496094 357.152344 L 215.496094 393.558594 L 182.019531 393.558594 C 131.28125 366.214844 99.828125 313.6875 99.828125 256 C 99.828125 169.882812 169.890625 99.824219 256.003906 99.824219 C 297.71875 99.824219 336.9375 116.070312 366.433594 145.570312 C 369.402344 148.539062 374.21875 148.539062 377.1875 145.570312 C 380.15625 142.601562 380.15625 137.785156 377.1875 134.816406 C 344.816406 102.445312 301.78125 84.617188 256.003906 84.617188 C 161.503906 84.617188 84.621094 161.5 84.621094 256 C 84.621094 316.488281 116.132812 371.808594 167.507812 402.785156 L 167.507812 445.128906 C 167.507812 458.160156 171.257812 470.792969 178.355469 481.660156 C 180.652344 485.175781 185.367188 486.164062 188.882812 483.867188 C 192.398438 481.570312 193.386719 476.859375 191.089844 473.339844 C 185.609375 464.953125 182.714844 455.199219 182.714844 445.128906 L 182.714844 408.765625 L 331.28125 408.765625 L 331.28125 445.128906 C 331.28125 473.617188 308.109375 496.792969 279.621094 496.792969 L 234.375 496.792969 C 225.632812 496.792969 216.996094 494.570312 209.402344 490.367188 C 205.726562 488.335938 201.101562 489.664062 199.066406 493.339844 C 197.035156 497.015625 198.363281 501.640625 202.039062 503.675781 C 211.882812 509.121094 223.0625 512 234.375 512 L 279.621094 512 C 316.492188 512 346.492188 482.003906 346.492188 445.128906 L 346.492188 401.570312 C 396.691406 370.378906 427.386719 315.707031 427.386719 256 Z M 233.550781 256.632812 C 233.550781 244.25 243.625 234.179688 256.003906 234.179688 C 268.382812 234.179688 278.457031 244.25 278.457031 256.632812 C 278.457031 269.003906 268.398438 279.074219 256.027344 279.085938 C 256.019531 279.085938 256.011719 279.085938 256.003906 279.085938 C 255.992188 279.085938 255.984375 279.085938 255.976562 279.085938 C 243.609375 279.074219 233.550781 269.003906 233.550781 256.632812 Z M 230.703125 393.558594 L 230.703125 357.152344 C 230.703125 349.324219 237.070312 342.957031 244.898438 342.957031 L 267.109375 342.957031 C 274.9375 342.957031 281.304688 349.324219 281.304688 357.152344 L 281.304688 393.558594 Z M 230.703125 393.558594 "
      style=" stroke:none;fill-rule:nonzero;fill:rgb(0%,0%,0%);fill-opacity:1;" />
    <path
      d="M 256 61.105469 C 260.199219 61.105469 263.605469 57.699219 263.605469 53.5 L 263.605469 7.605469 C 263.605469 3.40625 260.199219 0 256 0 C 251.800781 0 248.398438 3.40625 248.398438 7.605469 L 248.398438 53.5 C 248.398438 57.699219 251.800781 61.105469 256 61.105469 Z M 256 61.105469 "
      style=" stroke:none;fill-rule:nonzero;fill:rgb(0%,0%,0%);fill-opacity:1;" />
    <path
      d="M 148.167969 84.433594 C 149.574219 86.871094 152.128906 88.234375 154.757812 88.234375 C 156.046875 88.234375 157.355469 87.90625 158.554688 87.214844 C 162.191406 85.117188 163.4375 80.464844 161.335938 76.828125 L 138.386719 37.082031 C 136.289062 33.441406 131.636719 32.199219 128 34.296875 C 124.363281 36.398438 123.117188 41.046875 125.21875 44.683594 Z M 148.167969 84.433594 "
      style=" stroke:none;fill-rule:nonzero;fill:rgb(0%,0%,0%);fill-opacity:1;" />
    <path
      d="M 37.082031 138.386719 L 76.828125 161.335938 C 78.027344 162.027344 79.335938 162.355469 80.625 162.355469 C 83.25 162.355469 85.808594 160.992188 87.214844 158.550781 C 89.316406 154.914062 88.070312 150.265625 84.433594 148.164062 L 44.683594 125.21875 C 41.046875 123.117188 36.398438 124.363281 34.296875 128 C 32.199219 131.636719 33.445312 136.289062 37.082031 138.386719 Z M 37.082031 138.386719 "
      style=" stroke:none;fill-rule:nonzero;fill:rgb(0%,0%,0%);fill-opacity:1;" />
    <path
      d="M 474.917969 373.613281 L 435.171875 350.664062 C 431.535156 348.5625 426.882812 349.8125 424.785156 353.449219 C 422.683594 357.085938 423.929688 361.734375 427.566406 363.835938 L 467.316406 386.78125 C 468.515625 387.472656 469.820312 387.804688 471.109375 387.804688 C 473.738281 387.804688 476.292969 386.4375 477.703125 384 C 479.804688 380.363281 478.554688 375.710938 474.917969 373.613281 Z M 474.917969 373.613281 "
      style=" stroke:none;fill-rule:nonzero;fill:rgb(0%,0%,0%);fill-opacity:1;" />
    <path
      d="M 61.105469 256 C 61.105469 251.800781 57.699219 248.394531 53.5 248.394531 L 7.605469 248.394531 C 3.40625 248.394531 0 251.800781 0 256 C 0 260.199219 3.40625 263.605469 7.605469 263.605469 L 53.5 263.605469 C 57.699219 263.605469 61.105469 260.199219 61.105469 256 Z M 61.105469 256 "
      style=" stroke:none;fill-rule:nonzero;fill:rgb(0%,0%,0%);fill-opacity:1;" />
    <path
      d="M 504.398438 248.394531 L 458.5 248.394531 C 454.296875 248.394531 450.894531 251.800781 450.894531 256 C 450.894531 260.199219 454.296875 263.605469 458.5 263.605469 L 504.398438 263.605469 C 508.597656 263.605469 512 260.199219 512 256 C 512 251.800781 508.597656 248.394531 504.398438 248.394531 Z M 504.398438 248.394531 "
      style=" stroke:none;fill-rule:nonzero;fill:rgb(0%,0%,0%);fill-opacity:1;" />
    <path
      d="M 76.828125 350.664062 L 37.082031 373.613281 C 33.445312 375.714844 32.199219 380.363281 34.296875 384 C 35.707031 386.441406 38.261719 387.804688 40.890625 387.804688 C 42.179688 387.804688 43.488281 387.476562 44.683594 386.785156 L 84.433594 363.835938 C 88.070312 361.734375 89.316406 357.085938 87.214844 353.449219 C 85.117188 349.8125 80.464844 348.566406 76.828125 350.664062 Z M 76.828125 350.664062 "
      style=" stroke:none;fill-rule:nonzero;fill:rgb(0%,0%,0%);fill-opacity:1;" />
    <path
      d="M 431.378906 162.355469 C 432.667969 162.355469 433.976562 162.027344 435.171875 161.335938 L 474.917969 138.386719 C 478.554688 136.289062 479.800781 131.636719 477.703125 128 C 475.605469 124.363281 470.949219 123.117188 467.316406 125.21875 L 427.566406 148.164062 C 423.929688 150.265625 422.683594 154.914062 424.785156 158.550781 C 426.195312 160.992188 428.75 162.355469 431.378906 162.355469 Z M 431.378906 162.355469 "
      style=" stroke:none;fill-rule:nonzero;fill:rgb(0%,0%,0%);fill-opacity:1;" />
    <path
      d="M 353.449219 87.214844 C 354.648438 87.90625 355.953125 88.234375 357.242188 88.234375 C 359.871094 88.234375 362.425781 86.871094 363.835938 84.433594 L 386.785156 44.683594 C 388.882812 41.046875 387.636719 36.398438 384 34.296875 C 380.363281 32.195312 375.710938 33.445312 373.613281 37.082031 L 350.664062 76.828125 C 348.566406 80.464844 349.8125 85.117188 353.449219 87.214844 Z M 353.449219 87.214844 "
      style=" stroke:none;fill-rule:nonzero;fill:rgb(0%,0%,0%);fill-opacity:1;" />
    <path
      d="M 209.367188 442.316406 L 302.640625 442.316406 C 306.839844 442.316406 310.246094 438.910156 310.246094 434.710938 C 310.246094 430.511719 306.839844 427.109375 302.640625 427.109375 L 209.367188 427.109375 C 205.167969 427.109375 201.761719 430.511719 201.761719 434.710938 C 201.761719 438.910156 205.167969 442.316406 209.367188 442.316406 Z M 209.367188 442.316406 "
      style=" stroke:none;fill-rule:nonzero;fill:rgb(0%,0%,0%);fill-opacity:1;" />
    <path
      d="M 209.367188 472.734375 L 302.640625 472.734375 C 306.839844 472.734375 310.246094 469.328125 310.246094 465.128906 C 310.246094 460.929688 306.839844 457.527344 302.640625 457.527344 L 209.367188 457.527344 C 205.167969 457.527344 201.761719 460.929688 201.761719 465.128906 C 201.761719 469.328125 205.167969 472.734375 209.367188 472.734375 Z M 209.367188 472.734375 "
      style=" stroke:none;fill-rule:nonzero;fill:rgb(0%,0%,0%);fill-opacity:1;" />
  </g>
</svg>